<svg xmlns="http://www.w3.org/2000/svg" width="186.381" height="129.142" viewBox="0 0 186.381 129.142">
  <g id="Group_55" data-name="Group 55" transform="translate(-123.12 -138.87)">
    <path id="Path_31" data-name="Path 31" d="M51.11-11.13V50.691H38.7V45.526q-4.832,5.832-14,5.832a23.276,23.276,0,0,1-11.456-2.833A20.283,20.283,0,0,1,5.2,40.443,24.635,24.635,0,0,1,2.286,28.279,24.635,24.635,0,0,1,5.2,16.115a20.283,20.283,0,0,1,8.04-8.082A23.276,23.276,0,0,1,24.7,5.2q8.582,0,13.414,5.416V-11.13ZM26.948,40.693a10.861,10.861,0,0,0,8.165-3.374,12.483,12.483,0,0,0,3.249-9.04,12.483,12.483,0,0,0-3.249-9.04,10.861,10.861,0,0,0-8.165-3.374A10.96,10.96,0,0,0,18.7,19.239a12.483,12.483,0,0,0-3.249,9.04,12.483,12.483,0,0,0,3.249,9.04A10.96,10.96,0,0,0,26.948,40.693ZM84.437,51.358A26.878,26.878,0,0,1,71.731,48.4a21.988,21.988,0,0,1-8.79-8.207,22.612,22.612,0,0,1-3.166-11.914,22.612,22.612,0,0,1,3.166-11.914,21.988,21.988,0,0,1,8.79-8.207A26.878,26.878,0,0,1,84.437,5.2,26.631,26.631,0,0,1,97.1,8.158a22.056,22.056,0,0,1,8.748,8.207,22.612,22.612,0,0,1,3.166,11.914,22.612,22.612,0,0,1-3.166,11.914A22.056,22.056,0,0,1,97.1,48.4,26.631,26.631,0,0,1,84.437,51.358Zm0-10.665a10.826,10.826,0,0,0,8.207-3.374,12.579,12.579,0,0,0,3.208-9.04,12.579,12.579,0,0,0-3.208-9.04,10.826,10.826,0,0,0-8.207-3.374,10.96,10.96,0,0,0-8.248,3.374,12.483,12.483,0,0,0-3.249,9.04,12.483,12.483,0,0,0,3.249,9.04A10.96,10.96,0,0,0,84.437,40.693ZM34.363,115.179a13.36,13.36,0,0,1-4.707,2.125,23.8,23.8,0,0,1-5.874.708q-8,0-12.373-4.083t-4.374-12V83.518H.12v-10H7.035V62.606h13V73.52H31.2v10H20.033v18.246a6.119,6.119,0,0,0,1.458,4.374,5.4,5.4,0,0,0,4.124,1.541,8.353,8.353,0,0,0,5.249-1.666ZM59.775,71.854q10.415,0,16,4.957t5.582,14.955v25.578H69.19v-5.582q-3.666,6.249-13.664,6.249a21.207,21.207,0,0,1-8.957-1.75,13.356,13.356,0,0,1-5.791-4.832,12.577,12.577,0,0,1-2-7A11.679,11.679,0,0,1,43.487,94.6q4.707-3.583,14.539-3.583H68.357a8.283,8.283,0,0,0-2.583-6.54q-2.583-2.291-7.749-2.291a22.624,22.624,0,0,0-7.04,1.125,18.626,18.626,0,0,0-5.874,3.041L40.446,77.27a28.151,28.151,0,0,1,8.79-4A39.375,39.375,0,0,1,59.775,71.854Zm-1,37.409a11.319,11.319,0,0,0,5.916-1.541,8.434,8.434,0,0,0,3.666-4.541V98.6H59.442q-8,0-8,5.249a4.674,4.674,0,0,0,1.958,3.958A8.82,8.82,0,0,0,58.775,109.263Zm49.407,8.748a43.543,43.543,0,0,1-10.915-1.375,28.516,28.516,0,0,1-8.5-3.458l4.332-9.332a27.268,27.268,0,0,0,7.249,3.124,30.38,30.38,0,0,0,8.332,1.208q8.248,0,8.248-4.083,0-1.916-2.25-2.749a33.32,33.32,0,0,0-6.915-1.416,66.712,66.712,0,0,1-9.082-1.916,14.09,14.09,0,0,1-6.207-3.833q-2.624-2.749-2.624-7.832a12.268,12.268,0,0,1,2.458-7.54,15.819,15.819,0,0,1,7.165-5.124A30.6,30.6,0,0,1,110.6,71.854a43.654,43.654,0,0,1,9.456,1.041,26.433,26.433,0,0,1,7.79,2.874l-4.332,9.248A25.865,25.865,0,0,0,110.6,81.685a13.14,13.14,0,0,0-6.249,1.166,3.429,3.429,0,0,0-2.083,3,2.978,2.978,0,0,0,2.25,2.916,39.825,39.825,0,0,0,7.165,1.583,76.7,76.7,0,0,1,9,1.958,13.518,13.518,0,0,1,6.082,3.791q2.583,2.749,2.583,7.665a11.837,11.837,0,0,1-2.5,7.415,15.956,15.956,0,0,1-7.29,5.041A32.48,32.48,0,0,1,108.182,118.012ZM156.59,99.765l-6.249,6.165v11.414h-13V55.524h13V90.517l19-18h15.5l-18.663,19L186.5,117.345H170.754Z" transform="translate(123 150)" fill="#f7f7f8"/>
    <path id="Union_3" data-name="Union 3" d="M0,27.772V0H9.525V18.516H44.438v9.257Z" transform="translate(202.456 181.589) rotate(-45)" fill="#ffce00"/>
  </g>
</svg>
