<svg id="Logo" xmlns="http://www.w3.org/2000/svg" xmlns:xlink="http://www.w3.org/1999/xlink" width="235.156" height="99.464" viewBox="0 0 235.156 99.464">
  <defs>
    <clipPath id="clip-path">
      <rect x="45" y="8" width="235.156" height="99.464" fill="none"/>
    </clipPath>
    <filter id="Ellipse_39" x="-45" y="-8" width="152.464" height="152.464" filterUnits="userSpaceOnUse">
      <feOffset dy="3" input="SourceAlpha"/>
      <feGaussianBlur stdDeviation="3" result="blur"/>
      <feFlood flood-opacity="0.161"/>
      <feComposite operator="in" in2="blur"/>
      <feComposite in="SourceGraphic"/>
    </filter>
  </defs>
  <g id="Scroll_Group_1" data-name="Scroll Group 1" transform="translate(-45 -8)" clip-path="url(#clip-path)" style="isolation: isolate">
    <g id="Group_38" data-name="Group 38" transform="translate(9 5.846)">
      <g transform="matrix(1, 0, 0, 1, 36, 2.15)" filter="url(#Ellipse_39)">
        <ellipse id="Ellipse_39-2" data-name="Ellipse 39" cx="67.232" cy="67.232" rx="67.232" ry="67.232" transform="translate(-36 -2)" fill="#222" opacity="0"/>
      </g>
      <path id="Path_22" data-name="Path 22" d="M2110.556,3799.316h9.934l-4.915-67.386Z" transform="translate(-2048.291 -3731.93)" fill="#222" stroke="#222223" stroke-width="1"/>
    </g>
    <text id="urs_minutes" data-name="urs &amp; minutes" transform="translate(87.156 81.689)" fill="#222" font-size="25" font-family="NunitoSans-Bold, Nunito Sans" font-weight="700"><tspan x="0" y="0">URS &amp; MINUTES</tspan></text>
    <path id="Path_23" data-name="Path 23" d="M0,36.24H8.33L4.209,0Z" transform="translate(97.681 102.612) rotate(150)" fill="#222" stroke="#222223" stroke-width="1"/>
    <g id="Ellipse_37" data-name="Ellipse 37" transform="translate(70.586 67.554)" fill="#fff" stroke="#707070" stroke-width="1">
      <ellipse cx="5.645" cy="5.645" rx="5.645" ry="5.645" stroke="none"/>
      <ellipse cx="5.645" cy="5.645" rx="5.145" ry="5.145" fill="none"/>
    </g>
    <text id="H" transform="translate(46.156 81.689)" fill="#222" font-size="25" font-family="NunitoSans-Bold, Nunito Sans" font-weight="700"><tspan x="0" y="0">H</tspan></text>
    <g id="Ellipse_40" data-name="Ellipse 40" transform="translate(66.156 62.689)" fill="#fff" stroke="#222" stroke-width="2.5">
      <circle cx="10" cy="10" r="10" stroke="none"/>
      <circle cx="10" cy="10" r="8.75" fill="none"/>
    </g>
  </g>
</svg>
