<svg xmlns="http://www.w3.org/2000/svg" xmlns:xlink="http://www.w3.org/1999/xlink" width="1920" height="1080" viewBox="0 0 1920 1080">
  <defs>
    <clipPath id="clip-Landing_page_2">
      <rect width="1920" height="1080"/>
    </clipPath>
  </defs>
  <g id="Landing_page_2" data-name="Landing page – 2" clip-path="url(#clip-Landing_page_2)">
    <rect width="1920" height="1080" fill="#fff"/>
    <path id="Rectangle_1" data-name="Rectangle 1" d="M216,0H743a0,0,0,0,1,0,0V216a0,0,0,0,1,0,0H0a0,0,0,0,1,0,0v0A216,216,0,0,1,216,0Z" transform="translate(1178)" fill="#db5804"/>
    <path id="Rectangle_2" data-name="Rectangle 2" d="M216,0H960a0,0,0,0,1,0,0V216a0,0,0,0,1,0,0H0a0,0,0,0,1,0,0v0A216,216,0,0,1,216,0Z" transform="translate(961 216)" fill="#eb5e03"/>
    <path id="Union_1" data-name="Union 1" d="M216,432C96.707,432,0,335.293,0,216H1366V432ZM0,216C0,96.707,96.707,0,216,0H1366V216Z" transform="translate(555 432)" fill="#f86506"/>
    <path id="Rectangle_5" data-name="Rectangle 5" d="M0,0H743a0,0,0,0,1,0,0V216a0,0,0,0,1,0,0H216A216,216,0,0,1,0,0V0A0,0,0,0,1,0,0Z" transform="translate(1178 864)" fill="#eb5e03"/>
  </g>
</svg>
